<svg xmlns="http://www.w3.org/2000/svg" version="1.1" xmlns:xlink="http://www.w3.org/1999/xlink" xmlns:svgjs="http://svgjs.com/svgjs" width="105" height="93"><svg width="105" height="93" viewBox="0 0 105 93" fill="none" xmlns="http://www.w3.org/2000/svg">
<path d="M42.216 92.152C38.4613 92.152 35.56 91.128 33.512 89.08C31.464 86.9467 30.44 84.0027 30.44 80.248V19.96H10.344C7.18667 19.96 4.75467 19.1493 3.048 17.528C1.42667 15.8213 0.616 13.432 0.616 10.36C0.616 7.20266 1.42667 4.81333 3.048 3.19199C4.75467 1.57066 7.18667 0.759995 10.344 0.759995H74.088C77.2453 0.759995 79.6347 1.57066 81.256 3.19199C82.9627 4.81333 83.816 7.20266 83.816 10.36C83.816 13.432 82.9627 15.8213 81.256 17.528C79.6347 19.1493 77.2453 19.96 74.088 19.96H53.992V80.248C53.992 84.0027 53.0107 86.9467 51.048 89.08C49.0853 91.128 46.1413 92.152 42.216 92.152ZM91.658 91.768C87.818 91.768 84.746 90.616 82.442 88.312C80.2233 86.008 79.114 82.9787 79.114 79.224C79.114 75.5547 80.2233 72.6107 82.442 70.392C84.746 68.088 87.818 66.936 91.658 66.936C95.6687 66.936 98.7407 68.088 100.874 70.392C103.093 72.6107 104.202 75.5547 104.202 79.224C104.202 82.9787 103.093 86.008 100.874 88.312C98.7407 90.616 95.6687 91.768 91.658 91.768Z" fill="#D0D0D0"></path>
</svg><style>@media (prefers-color-scheme: light) { :root { filter: none; } }
</style></svg>